<svg width="72" height="15" viewBox="0 0 72 15" fill="none" xmlns="http://www.w3.org/2000/svg">
<path fill-rule="evenodd" clip-rule="evenodd" d="M47.4431 8.22386C47.4858 8.5032 47.5071 8.71807 47.5711 8.93295C48.0404 10.9313 49.5977 12.2635 51.6242 12.4354C53.4162 12.5859 54.8241 11.8983 55.8694 10.4156C56.3814 9.70651 57.2133 9.57758 57.8746 10.1578C58.2586 10.4801 58.3013 10.9098 58.0026 11.3181C57.832 11.533 57.6826 11.7478 57.512 11.9842C56.8293 12.9297 55.9334 13.5743 54.8241 13.9611C53.0322 14.5842 51.2403 14.6702 49.4697 14.004C47.0804 13.1231 45.6725 11.3611 45.2672 8.847C45.0325 7.29989 45.1819 5.75277 45.8858 4.35607C46.9098 2.35772 48.5097 1.13292 50.7283 0.767631C52.2002 0.531266 53.6508 0.68168 55.0161 1.3478C56.9573 2.27177 58.1306 3.84037 58.5786 5.92468C58.7066 6.50484 58.7493 7.08501 58.7919 7.66518C58.8346 8.03047 58.6639 8.18088 58.3013 8.20237C58.1306 8.20237 57.9813 8.20237 57.8106 8.20237C54.5041 8.20237 51.1976 8.20237 47.9124 8.20237C47.7631 8.22386 47.6564 8.22386 47.4431 8.22386ZM56.4667 6.03211C56.1894 4.16269 53.9495 2.52962 51.8802 2.65855C49.7257 2.78747 47.5924 4.44203 47.5071 6.03211C50.4723 6.03211 53.4802 6.03211 56.4667 6.03211Z" fill="#0030AE"/>
<path fill-rule="evenodd" clip-rule="evenodd" d="M30.504 8.15951C30.5253 8.3529 30.5466 8.48183 30.568 8.63224C30.9733 10.8455 32.7652 12.3711 34.9838 12.4141C36.669 12.4356 37.9703 11.748 38.9516 10.3727C39.4636 9.64217 40.3809 9.55621 41.0208 10.2008C41.3195 10.5232 41.3835 10.9099 41.0848 11.2967C40.9568 11.4901 40.8288 11.662 40.6795 11.8124C39.9542 12.8868 38.9516 13.5744 37.7356 13.9827C35.9437 14.5843 34.1518 14.6273 32.4239 13.9397C29.9493 12.9728 28.5627 11.0604 28.2641 8.39588C28.1147 7.10662 28.2427 5.86033 28.776 4.67851C29.8213 2.44379 31.5066 1.06857 33.9598 0.746258C35.2611 0.574357 36.5624 0.681795 37.757 1.17601C39.9329 2.0785 41.1915 3.77602 41.6821 6.07521C41.7675 6.59091 41.8315 7.14959 41.8528 7.6653C41.8741 8.09505 41.7888 8.181 41.3408 8.181C40.5728 8.181 39.7622 8.181 38.9729 8.181C36.3277 8.181 33.6825 8.181 31.0799 8.181C30.8879 8.15951 30.7173 8.15951 30.504 8.15951ZM39.5702 5.96777C39.2929 4.11983 37.117 2.55122 34.9838 2.5942C32.9145 2.63718 30.76 4.31322 30.5893 5.96777C33.5758 5.96777 36.541 5.96777 39.5702 5.96777Z" fill="#0030AE"/>
<path fill-rule="evenodd" clip-rule="evenodd" d="M67.6226 9.1478C67.7933 9.29821 67.8786 9.38416 67.9852 9.47011C69.1372 10.4585 70.2891 11.447 71.4198 12.4354C71.4838 12.4999 71.5904 12.5858 71.6544 12.6503C72.0811 13.08 72.1237 13.7032 71.7184 14.1329C71.3344 14.5627 70.7371 14.6272 70.2891 14.2619C69.4785 13.5958 68.7105 12.9081 67.9212 12.242C66.7906 11.2751 65.6813 10.3081 64.5507 9.34119C64.4654 9.25524 64.3374 9.16929 64.1667 9.04036C64.1667 9.27672 64.1454 9.42714 64.1454 9.57755C64.1454 12.3065 64.1454 10.2652 64.1454 12.9941C64.1454 13.123 64.1454 13.2519 64.1454 13.3809C64.1027 13.9825 63.6548 14.4123 63.0575 14.3693C62.4815 14.3478 62.0975 13.9181 62.0762 13.3164C62.0762 13.1875 62.0762 13.0586 62.0762 12.9296C62.0762 7.53622 62.0762 6.91308 62.0762 1.51967C62.0762 1.34777 62.0762 1.19735 62.0762 1.02545C62.0762 0.638672 62.1188 0.574209 62.4815 0.574209C62.9721 0.552722 63.4628 0.552722 63.9534 0.552722C65.1267 0.552722 66.3427 0.595697 67.5159 0.531234C69.4998 0.445283 71.7184 2.05686 71.9317 4.39902C72.1237 6.50481 70.6945 8.50317 68.5612 8.93292C68.2839 8.99738 67.9852 9.08333 67.6226 9.1478ZM64.0174 7.49325C64.1454 7.51473 64.2307 7.51473 64.2947 7.51473C65.276 7.51473 66.2787 7.51473 67.2599 7.51473C67.5373 7.51473 67.8359 7.49325 68.1132 7.38581C69.0305 7.10647 69.7558 6.54779 69.9905 5.55935C70.3958 3.86183 69.1372 2.31471 67.4093 2.31471C66.3853 2.31471 65.3827 2.31471 64.3374 2.31471C64.2094 2.31471 64.1027 2.3362 63.9748 2.3362C64.0174 4.05522 64.0174 5.75274 64.0174 7.49325Z" fill="#0030AE"/>
<path fill-rule="evenodd" clip-rule="evenodd" d="M22.8253 8.18091C20.8627 8.18091 18.9641 8.18091 17.0229 8.18091C17.0229 8.35281 17.0015 8.50322 17.0015 8.65364C17.0015 10.1578 17.0015 11.6404 17.0015 13.1446C17.0015 13.338 17.0015 13.5313 16.9589 13.6818C16.8095 14.133 16.3402 14.4123 15.8922 14.3908C15.4016 14.3479 14.9963 13.9611 14.9323 13.4669C14.9109 13.338 14.9323 13.2305 14.9323 13.1016C14.9323 7.75115 14.9109 7.10652 14.9109 1.77758C14.9109 1.5627 14.9323 1.34782 14.9963 1.15443C15.1669 0.703192 15.6362 0.445339 16.1269 0.509802C16.5749 0.574265 16.9589 0.961044 17.0015 1.43377C17.0229 1.58419 17.0015 1.71311 17.0015 1.86353C17.0015 4.61395 17.0229 2.65857 17.0229 5.409C17.0229 5.5809 17.0442 5.73131 17.0442 5.88172C17.4068 5.96767 22.4413 5.96767 22.8253 5.88172C22.8253 5.7528 22.8466 5.62387 22.8466 5.47346C22.8466 4.27015 22.8466 3.04535 22.8466 1.84204C22.8466 1.71311 22.8466 1.60567 22.8466 1.47675C22.8893 0.939556 23.2946 0.53129 23.8279 0.509802C24.3612 0.488315 24.8518 0.896581 24.9158 1.43377C24.9372 1.5627 24.9158 1.67014 24.9158 1.79906C24.9158 5.55941 24.9158 9.29827 24.9158 13.0586C24.9158 13.1875 24.9158 13.295 24.9158 13.4239C24.8518 13.9611 24.3825 14.3909 23.8492 14.3694C23.3159 14.3479 22.8893 13.9181 22.8253 13.3809C22.8253 13.252 22.8253 13.1446 22.8253 13.0156C22.8253 11.576 22.8253 10.0933 22.8253 8.65364C22.8253 8.52471 22.8253 8.3743 22.8253 8.18091Z" fill="#0030AE"/>
<path fill-rule="evenodd" clip-rule="evenodd" d="M5.8444 14.4767C4.45779 14.4552 3.15652 14.1544 1.96191 13.4238C1.44993 13.123 0.980616 12.7362 0.596634 12.285C0.404642 12.0486 0.169986 11.8123 0.0846569 11.5114C-0.0433373 11.1246 -0.0646697 10.6949 0.297981 10.3511C0.703296 9.96431 1.25794 9.8139 1.81258 10.1792C2.34589 10.566 2.60188 11.0602 3.04986 11.5114C3.68983 12.1561 4.52179 12.4999 5.41775 12.6073C6.24971 12.6932 7.06034 12.6718 7.87097 12.3924C8.19096 12.2635 8.53228 12.1131 8.8096 11.8982C9.32157 11.318 9.4709 10.5015 8.85226 9.94282C8.55361 9.68497 8.16962 9.49158 7.78564 9.31968C6.84702 8.91142 5.86573 8.63207 4.88444 8.37422C4.07381 8.18083 3.30584 7.92298 2.49521 7.68662C2.19656 7.60067 1.89791 7.42876 1.62059 7.27835C0.873955 6.87008 0.447307 6.22545 0.319313 5.40892C0.0846569 3.71139 0.703296 2.18577 2.17523 1.4337C4.47913 0.294852 6.86835 0.40229 9.17225 1.71304C9.59889 1.9494 10.0042 2.31469 10.3669 2.63701C10.6442 2.87337 10.8575 3.21718 10.9642 3.58247C11.0708 4.03371 10.8575 4.50644 10.3029 4.63537C9.83355 4.7428 9.4069 4.59239 9.06558 4.2271C9.00159 4.16264 8.93759 4.07668 8.89493 4.01222C8.36162 3.19569 7.57232 2.74445 6.63369 2.57255C5.69507 2.40065 4.75645 2.42213 3.86049 2.78742C3.5405 2.91635 3.19918 3.08825 2.94319 3.32462C2.55921 3.84032 2.40989 4.52793 2.92186 5.17256C3.32718 5.55934 3.79649 5.77421 4.30847 5.88165C5.43908 6.16099 6.59103 6.46182 7.72164 6.74116C8.44695 6.93455 9.15091 7.17091 9.81222 7.55769C10.6655 8.00893 11.2842 8.67505 11.4975 9.642C11.7535 10.8238 11.4975 11.9412 10.5802 12.8007C9.5349 13.7461 8.34028 14.2618 6.95368 14.4123C6.5697 14.4552 6.18571 14.4552 5.8444 14.4767Z" fill="#0030AE"/>
</svg>
