<svg width="16" height="17" viewBox="0 0 16 17" fill="none" xmlns="http://www.w3.org/2000/svg">
<g clip-path="url(#clip0_11_75)">
<path d="M5.36756 16.5298C4.10087 16.5298 2.82709 16.0486 1.86469 15.0791C-0.0672006 13.1472 -0.0672006 10.0052 1.86469 8.07335L8.36801 1.57003C9.0332 0.897764 9.92484 0.529785 10.8731 0.529785C11.8213 0.529785 12.7059 0.897764 13.3782 1.57003C14.7581 2.94995 14.7581 5.19321 13.3782 6.57313L6.86778 13.0764C6.03983 13.9044 4.69529 13.9044 3.86734 13.0764C3.46398 12.6731 3.24461 12.1423 3.24461 11.5762C3.24461 11.0101 3.46398 10.4723 3.86734 10.076L9.86823 4.06804C10.1442 3.79206 10.59 3.79206 10.8731 4.06804C11.1491 4.34403 11.1491 4.78985 10.8731 5.06583L4.85805 11.0738C4.7236 11.2082 4.65283 11.3852 4.65283 11.5762C4.65283 11.7673 4.7236 11.9442 4.85805 12.0787C5.13404 12.3546 5.58693 12.3546 5.86292 12.0787L12.3733 5.57534C13.2013 4.74739 13.2013 3.40285 12.3733 2.56782C11.5666 1.76818 10.1725 1.76818 9.36579 2.56782L2.86248 9.07114C1.48256 10.4511 1.48256 12.7014 2.86248 14.0813C4.2424 15.4612 6.49273 15.4612 7.87265 14.0813L14.376 7.57799C14.6519 7.30201 15.0978 7.30201 15.3738 7.57799C15.6497 7.85398 15.6497 8.2998 15.3738 8.57578L8.87044 15.0791C7.90803 16.0415 6.63426 16.5298 5.36756 16.5298Z" fill="#0030AE"/>
</g>
<defs>
<clipPath id="clip0_11_75">
<rect width="15.172" height="16" fill="white" transform="translate(0.414062 0.529785)"/>
</clipPath>
</defs>
</svg>
