<svg width="16" height="17" viewBox="0 0 16 17" fill="none" xmlns="http://www.w3.org/2000/svg">
<g clip-path="url(#clip0_11_78)">
<path d="M13.6 16.0923H2.4C1.08 16.0923 0 15.0123 0 13.6923V10.4923C0 10.0523 0.36 9.69229 0.8 9.69229C1.24 9.69229 1.6 10.0523 1.6 10.4923V13.6923C1.6 14.1323 1.96 14.4923 2.4 14.4923H13.6C14.04 14.4923 14.4 14.1323 14.4 13.6923V10.4923C14.4 10.0523 14.76 9.69229 15.2 9.69229C15.64 9.69229 16 10.0523 16 10.4923V13.6923C16 15.0123 14.92 16.0923 13.6 16.0923Z" fill="#0030AE"/>
<path d="M8 11.2923C7.792 11.2923 7.592 11.2123 7.432 11.0603L3.432 7.06029C3.12 6.74829 3.12 6.24429 3.432 5.93229C3.744 5.62029 4.248 5.62029 4.56 5.93229L8 9.36429L11.432 5.93229C11.744 5.62029 12.248 5.62029 12.56 5.93229C12.872 6.24429 12.872 6.74829 12.56 7.06029L8.56 11.0603C8.408 11.2123 8.208 11.2923 8 11.2923Z" fill="#0030AE"/>
<path d="M7.99995 11.2923C7.55995 11.2923 7.19995 10.9323 7.19995 10.4923V0.892285C7.19995 0.452285 7.55995 0.0922852 7.99995 0.0922852C8.43995 0.0922852 8.79995 0.452285 8.79995 0.892285V10.4923C8.79995 10.9323 8.43995 11.2923 7.99995 11.2923Z" fill="#0030AE"/>
</g>
<defs>
<clipPath id="clip0_11_78">
<rect width="16" height="16" fill="white" transform="translate(0 0.0922852)"/>
</clipPath>
</defs>
</svg>
