<svg width="50" height="50" viewBox="0 0 50 50" fill="none" xmlns="http://www.w3.org/2000/svg">
<path d="M49.25 19.6203C49.2443 20.4126 48.984 21.1821 48.5076 21.8151C48.0311 22.4482 47.3637 22.9112 46.6039 23.1359L28.6602 28.6578L23.1383 46.6016C22.9132 47.3612 22.4501 48.0283 21.8171 48.5048C21.1842 48.9812 20.4149 49.2416 19.6227 49.2477H19.5523C18.7755 49.2549 18.0161 49.0172 17.3821 48.5683C16.748 48.1193 16.2715 47.482 16.0203 46.7469L0.734377 5.51797C0.729428 5.50582 0.725508 5.49327 0.722658 5.48047C0.494149 4.8168 0.456492 4.10231 0.613973 3.4183C0.771453 2.73428 1.11775 2.10819 1.61346 1.61126C2.10918 1.11432 2.73441 0.766488 3.41804 0.607325C4.10166 0.448163 4.81624 0.484062 5.48047 0.710938L5.51797 0.722657L46.7492 16.018C47.4958 16.2732 48.1412 16.7604 48.5911 17.4085C49.041 18.0566 49.2719 18.8316 49.25 19.6203Z" fill="url(#paint0_linear_41_621)"/>
<defs>
<linearGradient id="paint0_linear_41_621" x1="0.51837" y1="-21.5106" x2="59.4735" y2="-11.6077" gradientUnits="userSpaceOnUse">
<stop stop-color="#FF1557"/>
<stop offset="1" stop-color="#6C60EB"/>
</linearGradient>
</defs>
</svg>
